# xmcd CD database file
#
# Track frame offsets:
#	150
#	30382
#	52937
#	84470
#	115087
#	148247
#	171340
#	202707
#	240225
#	269177
#
# Disc length: 3873 seconds
#
# Revision: 1
# Processed by: cddbd v1.5PL3 Copyright (c) Steve Scherf et al.
# Submitted via: CDex 1.50
#
DISCID=810f1f0a
DTITLE=John Stetch - Stetching Out
DYEAR=1996
DGENRE=Jazz
TTITLE0=The Prarie Unfolds
TTITLE1=Snark
TTITLE2=For All We Know
TTITLE3=Gigue
TTITLE4=Moonglow
TTITLE5=Pannonica
TTITLE6=Savella
TTITLE7=Surrey With A Fringe on Top
TTITLE8=Out of Nowhere
TTITLE9=Embraceable You
EXTD=YEAR: 1996
EXTT0=
EXTT1=
EXTT2=
EXTT3=
EXTT4=
EXTT5=
EXTT6=
EXTT7=
EXTT8=
EXTT9=
PLAYORDER=
